<?xml version="1.0" encoding="UTF-8" standalone="no"?>
<!-- Created with Inkscape (http://www.inkscape.org/) -->

<svg
   xmlns:svg="http://www.w3.org/2000/svg"
   xmlns="http://www.w3.org/2000/svg"
   version="1.1"
   width="786.19"
   height="191.18016"
   id="svg2916">
  <defs
     id="defs2918">
    <filter
       color-interpolation-filters="sRGB"
       id="filter3868">
      <feGaussianBlur
         id="feGaussianBlur3870"
         result="result6"
         stdDeviation="1.5" />
      <feComposite
         in2="result6"
         operator="atop"
         in="SourceGraphic"
         result="result8"
         id="feComposite3872" />
      <feComposite
         in2="SourceAlpha"
         operator="atop"
         in="result8"
         result="result9"
         id="feComposite3874" />
    </filter>
  </defs>
  <g
     transform="translate(-52.829427,-422.48639)"
     id="layer1">
    <path
       d="m -784.77125,944.98048 7.424,0 0,-12.672 9.088,0 8.384,12.672 9.344,0 -10.048,-14.336 c 2.7733,-0.85332 5.03463,-2.36799 6.784,-4.544 1.74929,-2.17598 2.62396,-4.69331 2.624,-7.552 -4e-5,-4.01064 -1.3227,-7.29597 -3.968,-9.856 -2.6027,-2.60263 -6.10136,-3.90396 -10.496,-3.904 l -19.136,0 0,20.48 -4.8,0 0,7.04 4.8,0 0,12.672 m 7.424,-33.152 11.136,0 c 2.47464,3e-5 4.35197,0.64003 5.632,1.92 1.32264,1.28003 1.98397,2.88003 1.984,4.8 -3e-5,1.92002 -0.66136,3.52002 -1.984,4.8 -1.28003,1.28002 -3.15736,1.92002 -5.632,1.92 l -11.136,0 0,-13.44"
       transform="matrix(2.98027,0,0,2.98027,2440.6403,-2238.329)"
       id="path3747"
       style="font-size:64px;font-style:normal;font-variant:normal;font-weight:normal;font-stretch:normal;fill:#72c066;fill-opacity:1;stroke:none;display:inline;filter:url(#filter3868);font-family:Insignia;-inkscape-font-specification:Balker" />
    <path
       d="m 306.36386,505.48782 c -4.83209,-6.99362 -10.61781,-12.46143 -17.35709,-16.40341 -6.73947,-3.94182 -14.75043,-5.91276 -24.0329,-5.91285 -7.75669,9e-5 -14.81397,1.33525 -21.17184,4.00548 -6.35793,2.67041 -11.76214,6.35799 -16.21267,11.06276 -4.45055,4.57776 -7.82023,9.79123 -10.10907,15.64046 -2.28885,5.84932 -3.43328,11.82574 -3.43328,17.9293 0,6.10363 1.14443,12.08005 3.43328,17.92931 2.28884,5.84928 5.65852,11.12636 10.10907,15.83119 4.45053,4.5777 9.85474,8.2017 16.21267,10.87203 6.35787,2.67032 13.41515,4.00548 21.17184,4.00548 8.64669,0 16.65765,-2.03454 24.0329,-6.10359 7.37509,-4.19622 13.16078,-9.60044 17.35709,-16.21267 l -17.35709,-10.29982 c -2.79755,4.45056 -6.23082,7.88383 -10.29982,10.29982 -3.94197,2.41601 -8.51967,3.62401 -13.73308,3.62401 -8.51964,0 -15.64049,-2.86106 -21.36258,-8.58318 -5.72214,-5.84926 -8.5832,-12.97011 -8.58317,-21.36258 -3e-5,-8.39238 2.86103,-15.44966 8.58317,-21.17183 5.72209,-5.8492 12.84294,-8.77386 21.36258,-8.77392 5.34058,6e-5 9.98185,1.20808 13.92382,3.62401 3.94182,2.41607 7.31153,5.84934 10.10908,10.29981 l 17.35709,-10.29981"
       id="path3749"
       style="font-size:64px;font-style:normal;font-variant:normal;font-weight:normal;font-stretch:normal;fill:#000000;fill-opacity:1;stroke:none;display:inline;font-family:Insignia;-inkscape-font-specification:Balker" />
    <path
       d="m 395.07756,577.96799 19.83667,0 0,-92.31685 -19.83667,0 0,11.2535 -0.38148,0 c -2.67041,-4.06899 -6.61229,-7.37509 -11.82571,-9.91834 -5.0864,-2.54306 -10.93565,-3.81465 -17.54783,-3.81474 -7.12091,9e-5 -13.73311,1.39882 -19.83668,4.19622 -6.10362,2.79755 -11.3171,6.61229 -15.64045,11.44423 -4.32339,4.70493 -7.6295,9.98197 -9.91834,15.8312 -2.28885,5.72218 -3.43327,11.44426 -3.43327,17.16635 0,5.97646 1.08082,11.88931 3.24253,17.73857 2.16168,5.84929 5.34064,11.12636 9.53686,15.83119 4.19619,4.5777 9.28253,8.26528 15.25899,11.06277 5.97639,2.67032 12.5886,4.00548 19.83667,4.00548 6.2307,0 12.01639,-1.20802 17.3571,-3.62401 5.46772,-2.54315 9.79111,-5.91285 12.97013,-10.10907 l 0.38148,0 0,11.2535 M 337.4749,531.80956 c -3e-5,-4.06902 0.76292,-7.88376 2.28884,-11.44423 1.52587,-3.68755 3.62398,-6.93006 6.29433,-9.7276 2.79744,-2.79744 5.9764,-4.95911 9.53687,-6.48507 3.56038,-1.52584 7.31155,-2.28879 11.2535,-2.28885 3.81468,6e-5 7.50226,0.76301 11.06276,2.28885 3.56035,1.52596 6.67575,3.68763 9.34613,6.48507 2.67023,2.79754 4.76834,6.04005 6.29433,9.7276 1.52581,3.56047 2.28876,7.37521 2.28884,11.44423 -8e-5,4.06909 -0.76303,7.94743 -2.28884,11.63498 -1.52599,3.56044 -3.6241,6.7394 -6.29433,9.53686 -2.67038,2.79749 -5.78578,4.95917 -9.34613,6.48507 -3.5605,1.5259 -7.24808,2.28885 -11.06276,2.28885 -3.94195,0 -7.69312,-0.76295 -11.2535,-2.28885 -3.56047,-1.5259 -6.73943,-3.68758 -9.53687,-6.48507 -2.67035,-2.79746 -4.76846,-5.97642 -6.29433,-9.53686 -1.52592,-3.68755 -2.28887,-7.56589 -2.28884,-11.63498"
       id="path3751"
       style="font-size:64px;font-style:normal;font-variant:normal;font-weight:normal;font-stretch:normal;fill:#000000;fill-opacity:1;stroke:none;display:inline;font-family:Insignia;-inkscape-font-specification:Balker" />
    <path
       d="m 511.68062,577.96799 19.83668,0 0,-119.78302 -19.83668,0 0,38.71967 -0.38148,0 c -2.67041,-4.06899 -6.61229,-7.37509 -11.82571,-9.91834 -5.08639,-2.54306 -10.93565,-3.81465 -17.54783,-3.81474 -7.1209,9e-5 -13.73311,1.39882 -19.83667,4.19622 -6.10363,2.79755 -11.3171,6.61229 -15.64046,11.44423 -4.32339,4.70493 -7.62949,9.98197 -9.91834,15.8312 -2.28885,5.72218 -3.43327,11.44426 -3.43327,17.16635 0,5.97646 1.08082,11.88931 3.24253,17.73857 2.16168,5.84929 5.34065,11.12636 9.53687,15.83119 4.19619,4.5777 9.28253,8.26528 15.25898,11.06277 5.9764,2.67032 12.5886,4.00548 19.83668,4.00548 6.2307,0 12.01639,-1.20802 17.35709,-3.62401 5.46772,-2.54315 9.79111,-5.91285 12.97013,-10.10907 l 0.38148,0 0,11.2535 m -57.60266,-46.15843 c -3e-5,-4.06902 0.76292,-7.88376 2.28885,-11.44423 1.52587,-3.68755 3.62398,-6.93006 6.29433,-9.7276 2.79743,-2.79744 5.97639,-4.95911 9.53686,-6.48507 3.56038,-1.52584 7.31156,-2.28879 11.2535,-2.28885 3.81469,6e-5 7.50227,0.76301 11.06276,2.28885 3.56035,1.52596 6.67575,3.68763 9.34613,6.48507 2.67023,2.79754 4.76834,6.04005 6.29433,9.7276 1.52581,3.56047 2.28876,7.37521 2.28885,11.44423 -9e-5,4.06909 -0.76304,7.94743 -2.28885,11.63498 -1.52599,3.56044 -3.6241,6.7394 -6.29433,9.53686 -2.67038,2.79749 -5.78578,4.95917 -9.34613,6.48507 -3.56049,1.5259 -7.24807,2.28885 -11.06276,2.28885 -3.94194,0 -7.69312,-0.76295 -11.2535,-2.28885 -3.56047,-1.5259 -6.73943,-3.68758 -9.53686,-6.48507 -2.67035,-2.79746 -4.76846,-5.97642 -6.29433,-9.53686 -1.52593,-3.68755 -2.28888,-7.56589 -2.28885,-11.63498"
       id="path3753"
       style="font-size:64px;font-style:normal;font-variant:normal;font-weight:normal;font-stretch:normal;fill:#000000;fill-opacity:1;stroke:none;display:inline;font-family:Insignia;-inkscape-font-specification:Balker" />
    <path
       d="m 628.28368,548.59444 c -7.12093,9.53687 -16.02199,14.3053 -26.70322,14.3053 -7.1209,0 -13.4788,-2.28885 -19.07372,-6.86654 -5.59498,-4.70484 -8.64678,-10.49052 -9.15539,-17.35709 l 76.67638,0 0,-3.62401 c -1.2e-4,-8.51955 -1.52601,-16.08547 -4.57769,-22.69774 -2.92475,-6.61218 -6.86663,-12.07996 -11.82571,-16.40341 -4.83209,-4.32329 -10.04557,-7.50226 -15.64046,-9.53686 -5.46787,-2.16159 -10.74492,-3.24244 -15.83119,-3.24253 -7.75669,9e-5 -14.81397,1.33525 -21.17184,4.00548 -6.35793,2.67041 -11.76217,6.35799 -16.21267,11.06276 -4.45056,4.57776 -7.82023,9.79123 -10.10908,15.64046 -2.28884,5.84932 -3.43327,11.82574 -3.43327,17.9293 0,6.10363 1.14443,12.08005 3.43327,17.92931 2.28885,5.84928 5.65852,11.12636 10.10908,15.83119 4.4505,4.5777 9.85474,8.2017 16.21267,10.87203 6.35787,2.67032 13.41515,4.00548 21.17184,4.00548 8.13804,-0.12726 15.8947,-2.16171 23.26994,-6.10359 7.50224,-3.94192 14.05087,-9.4097 19.64594,-16.40341 l -16.78488,-9.34613 M 573.35135,522.2727 c 1.65303,-6.73934 4.83197,-12.01639 9.53686,-15.83119 4.7048,-3.81469 10.23618,-5.72206 16.59414,-5.72212 6.35784,6e-5 11.95279,1.84386 16.78488,5.53138 4.95908,3.68763 8.45595,9.02828 10.49055,16.02193 l -53.40643,0"
       id="path3755"
       style="font-size:64px;font-style:normal;font-variant:normal;font-weight:normal;font-stretch:normal;fill:#000000;fill-opacity:1;stroke:none;display:inline;font-family:Insignia;-inkscape-font-specification:Balker" />
  </g>
  <text
     x="614.24469"
     y="157.52878"
     id="text2824"
     xml:space="preserve"
     style="font-size:48px;font-style:normal;font-variant:normal;font-weight:normal;font-stretch:normal;text-align:start;line-height:100%;writing-mode:lr-tb;text-anchor:start;fill:#000000;fill-opacity:1;stroke:none;font-family:Star Avenue;-inkscape-font-specification:Star Avenue"><tspan
       x="614.24469"
       y="157.52878"
       id="tspan2826">server</tspan></text>
</svg>
